<svg
  id="Komponente_8_1"
  data-name="Komponente 8 – 1"
  xmlns="http://www.w3.org/2000/svg"
  xmlns:xlink="http://www.w3.org/1999/xlink"
  width="945.5"
  height="556"
  viewBox="0 0 945.5 556"
>

  <defs>
    <clipPath id="clip">
      <use xlink:href="#fill" />
    </clipPath>
    <clipPath id="clip-2">
      <use xlink:href="#fill-2" />
    </clipPath>
    <clipPath id="clip-3">
      <use xlink:href="#fill-3" />
    </clipPath>
    <clipPath id="clip-4">
      <use xlink:href="#fill-4" />
    </clipPath>
    <clipPath id="clip-5">
      <use xlink:href="#fill-5" />
    </clipPath>
    <clipPath id="clip-6">
      <use xlink:href="#fill-6" />
    </clipPath>
    <clipPath id="clip-7">
      <use xlink:href="#fill-7" />
    </clipPath>
    <clipPath id="clip-8">
      <use xlink:href="#fill-8" />
    </clipPath>
  </defs>

  <g class="wall" >
    <rect width="945" height="556" stroke="none" />
    <rect x="2.5" y="2.5" width="940" height="551" fill="#e2ecef" />
  </g>

  <g class="separators">
    <line x2="82" transform="translate(10.5 106.5)" />
    <line x2="82" transform="translate(136.5 106.5)" />
    <line y2="155" transform="translate(92.5 30.5)" />
    <line y2="155" transform="translate(136.5 30)" />

    <line x2="82" transform="translate(10.5 275)" />
    <line x2="82" transform="translate(136.5 275)" />
    <line y2="155" transform="translate(92.5 199.5)" />
    <line y2="155" transform="translate(136.5 199)" />

    <line x2="82" transform="translate(10.5 443.5)" />
    <line x2="82" transform="translate(136.5 443.5)" />
    <line y2="155" transform="translate(92.5 368.5)" />
    <line y2="155" transform="translate(136.5 368)" />


    <line x2="82" transform="translate(249 443.5)" />
    <line x2="82" transform="translate(376 443.5)" />
    <line y2="155" transform="translate(329 368.5)" />
    <line y2="155" transform="translate(376 368)" />


   
    <line x2="82" transform="translate(614.5 106.5)" />
    <line y2="155" transform="translate(614.5 30)" />


   
    <line x2="82" transform="translate(487.5 443.5)" />
    <line x2="82" transform="translate(614.5 443.5)" />
    <line y2="155" transform="translate(567.5 368.5)" />
    <line y2="155" transform="translate(614.5 368)" />


    <line x2="82" transform="translate(726 106.5)" />
    <line x2="82" transform="translate(853 106.5)" />
    <line y2="155" transform="translate(806 30.5)" />
    <line y2="155" transform="translate(853 30)" />


    
  </g>

  <g class="separate-room" >
    <line x1="268" transform="translate(317.5 160.5)" />
    <line y2="162.5" transform="translate(248.5 0.5)" />
    <line x1="22" transform="translate(248.5 160.5)" />
    <line y2="162.5" transform="translate(585 0.5)" />
  </g>

  <g class="separate-room" >
    <line x1="198" transform="translate(747.5 350.5)" />
    <line y2="202.5" transform="translate(748.5 350)" />
  </g>

<ng-container *ngIf="desks && desks.length > 0">
  <g class="seat" [id]="'seat-' + desks[0].id"
  [class.selected]="isVisible && isSelected('seat-' + desks[0].id)"
  (click)="select('seat-' + desks[0].id)" 
  [style.fill]="isSelected('seat-' + desks[0].id) ? '#4cdf0c' : (checkDeskAvailability(desks[0].id) ? 'red' : '#0cc')"
  [style.pointer-events]="isVisible ? 'auto' : 'none'"
  style="cursor: pointer">
    <g [id]="'table-' + desks[0].id" transform="translate(19 59)">
      <rect width="66" height="35" stroke="none" />
      <rect x="2.5" y="2.5" width="61" height="30" fill="none" />
    </g>

    <g [id]="'screen-' + desks[0].id" transform="translate(31 84)">
      <rect id="fill" width="42" height="4" stroke="none" />
      <path
        d="M0,1.5h42M39.5,0v4M42,2.5h-42M2.5,4v-4"
        fill="none"
        clip-path="url(#clip)"
      />
    </g>
    <g [id]="'chair-' + desks[0].id" transform="translate(40 30)">
      <ellipse cx="12.5" cy="11" rx="12.5" ry="11" stroke="none" />
      <ellipse cx="12.5" cy="11" rx="10" ry="8.5" fill="none" />
    </g>
</g>


  <g class="seat" [id]="'seat-' + desks[1].id"
  [class.selected]="isVisible && isSelected('seat-' + desks[1].id)"
  (click)="select('seat-' + desks[1].id)" 
  [style.fill]="isSelected('seat-' + desks[1].id) ? '#4cdf0c' : (checkDeskAvailability(desks[1].id) ? 'red' : '#0cc')"
  [style.pointer-events]="isVisible ? 'auto' : 'none'"
  style="cursor: pointer">
    <g id="'table-' + desks[1].id" transform="translate(148 59)">
      <rect width="66" height="35" stroke="none" />
      <rect x="2.5" y="2.5" width="61" height="30" fill="none" />
    </g>
    <g [id]="'screen-' + desks[1].id" transform="translate(160 84)">
      <rect id="fill-2" width="42" height="4" stroke="none" />
      <path
        d="M0,1.5h42M39.5,0v4M42,2.5h-42M2.5,4v-4"
        fill="none"
        clip-path="url(#clip-2)"
      />
    </g>
    <g [id]="'chair-' + desks[1].id" transform="translate(169 30)">
      <ellipse cx="12.5" cy="11" rx="12.5" ry="11" stroke="none" />
      <ellipse cx="12.5" cy="11" rx="10" ry="8.5" fill="none" />
    </g>
  </g>

  <g class="seat" [id]="'seat-' + desks[2].id"
  [class.selected]="isVisible && isSelected('seat-' + desks[2].id)"
  (click)="select('seat-' + desks[2].id)" 
  [style.fill]="isSelected('seat-' + desks[2].id) ? '#4cdf0c' : (checkDeskAvailability(desks[2].id) ? 'red' : '#0cc')"
  [style.pointer-events]="isVisible ? 'auto' : 'none'"
  style="cursor: pointer">
    <g [id]="'table-' + desks[2].id" transform="translate(85 156) rotate(180)">
      <rect width="66" height="35" stroke="none" />
      <rect x="2.5" y="2.5" width="61" height="30" fill="none" />
    </g>
    <g [id]="'screen-' + desks[2].id" transform="translate(73 131) rotate(180)">
      <rect id="fill-3" width="42" height="4" stroke="none" />
      <path
        d="M0,1.5h42M39.5,0v4M42,2.5h-42M2.5,4v-4"
        fill="none"
        clip-path="url(#clip-3)"
      />
    </g>
    <g [id]="'chair-' + desks[2].id" transform="translate(64 185) rotate(180)">
      <ellipse cx="12.5" cy="11" rx="12.5" ry="11" stroke="none" />
      <ellipse cx="12.5" cy="11" rx="10" ry="8.5" fill="none" />
    </g>
  </g>

  <g class="seat" [id]="'seat-' + desks[3].id"
  [class.selected]="isVisible && isSelected('seat-' + desks[3].id)"
  (click)="select('seat-' + desks[3].id)" 
  [style.fill]="isSelected('seat-' + desks[3].id) ? '#4cdf0c' : (checkDeskAvailability(desks[3].id) ? 'red' : '#0cc')"
  [style.pointer-events]="isVisible ? 'auto' : 'none'"
  style="cursor: pointer">
    <g [id]="'table-' + desks[3].id" transform="translate(214 156) rotate(180)">
      <rect width="66" height="35" stroke="none" />
      <rect x="2.5" y="2.5" width="61" height="30" fill="none" />
    </g>
    <g [id]="'screen-' + desks[3].id" transform="translate(202 131) rotate(180)">
      <rect id="fill-4" width="42" height="4" stroke="none" />
      <path
        d="M0,1.5h42M39.5,0v4M42,2.5h-42M2.5,4v-4"
        fill="none"
        clip-path="url(#clip-4)"
      />
    </g>
    <g id="'chair-' + desks[3].id" transform="translate(193 185) rotate(180)">
      <ellipse cx="12.5" cy="11" rx="12.5" ry="11" stroke="none" />
      <ellipse cx="12.5" cy="11" rx="10" ry="8.5" fill="none" />
    </g>
  </g>


   

  

  <g class="seat" [id]="'seat-' + desks[4].id"
  [class.selected]="isVisible && isSelected('seat-' + desks[4].id)"
  (click)="select('seat-' + desks[4].id)" 
  [style.fill]="isSelected('seat-' + desks[4].id) ? '#4cdf0c' : (checkDeskAvailability(desks[4].id) ? 'red' : '#0cc')"
  [style.pointer-events]="isVisible ? 'auto' : 'none'"
  style="cursor: pointer">
    <g [id]="'table-' + desks[4].id" transform="translate(622 59)">
      <rect width="66" height="35" stroke="none" />
      <rect x="2.5" y="2.5" width="61" height="30" fill="none" />
    </g>
    <g [id]="'screen-' + desks[4].id" transform="translate(634 84)">
      <rect id="fill-5" width="42" height="4" stroke="none" />
      <path
        d="M0,1.5h42M39.5,0v4M42,2.5h-42M2.5,4v-4"
        fill="none"
        clip-path="url(#clip-6)"
      />
    </g>
    <g [id]="'chair-' + desks[4].id" transform="translate(643 30)">
      <ellipse cx="12.5" cy="11" rx="12.5" ry="11" stroke="none" />
      <ellipse cx="12.5" cy="11" rx="10" ry="8.5" fill="none" />
    </g>
  </g>

  

  <g class="seat" [id]="'seat-' + desks[5].id"
  [class.selected]="isVisible && isSelected('seat-' + desks[5].id)"
  (click)="select('seat-' + desks[5].id)" 
  [style.fill]="isSelected('seat-' + desks[5].id) ? '#4cdf0c' : (checkDeskAvailability(desks[5].id) ? 'red' : '#0cc')"
  [style.pointer-events]="isVisible ? 'auto' : 'none'"
  style="cursor: pointer">
    <g [id]="'table-' + desks[5].id" transform="translate(687 156) rotate(180)">
      <rect width="66" height="35" stroke="none" />
      <rect x="2.5" y="2.5" width="61" height="30" fill="none" />
    </g>
    <g [id]="'screen-' + desks[5].id" transform="translate(675 131) rotate(180)">
      <rect id="fill-6" width="42" height="4" stroke="none" />
      <path
        d="M0,1.5h42M39.5,0v4M42,2.5h-42M2.5,4v-4"
        fill="none"
        clip-path="url(#clip-8)"
      />
    </g>
    <g [id]="'chair-' + desks[5].id" transform="translate(666 185) rotate(180)">
      <ellipse cx="12.5" cy="11" rx="12.5" ry="11" stroke="none" />
      <ellipse cx="12.5" cy="11" rx="10" ry="8.5" fill="none" />
    </g>
  </g>

  <g class="seat" [id]="'seat-' + desks[6].id" 
  [class.selected]="isVisible && isSelected('seat-' + desks[6].id)"
  (click)="select('seat-' + desks[6].id)" 
  [style.fill]="isSelected('seat-' + desks[6].id) ? '#4cdf0c' : (checkDeskAvailability(desks[6].id) ? 'red' : '#0cc')"
  [style.pointer-events]="isVisible ? 'auto' : 'none'"
  style="cursor: pointer">
    <g [id]="'table-' + desks[6].id" transform="translate(730 59)">
      <rect width="66" height="35" stroke="none" />
      <rect x="2.5" y="2.5" width="61" height="30" fill="none" />
    </g>
    <g [id]="'screen-' + desks[6].id" transform="translate(742 84)">
      <rect id="fill-7" width="42" height="4" stroke="none" />
      <path
        d="M0,1.5h42M39.5,0v4M42,2.5h-42M2.5,4v-4"
        fill="none"
        clip-path="url(#clip-5)"
      />
    </g>
    <g [id]="'chair-' + desks[6].id" transform="translate(751 30)">
      <ellipse cx="12.5" cy="11" rx="12.5" ry="11" stroke="none" />
      <ellipse cx="12.5" cy="11" rx="10" ry="8.5" fill="none" />
    </g>
  </g>

  <g class="seat" [id]="'seat-' + desks[7].id" 
  [class.selected]="isVisible && isSelected('seat-' + desks[7].id)"
  (click)="select('seat-' + desks[7].id)" 
  [style.fill]="isSelected('seat-' + desks[7].id) ? '#4cdf0c' : (checkDeskAvailability(desks[7].id) ? 'red' : '#0cc')"
  [style.pointer-events]="isVisible ? 'auto' : 'none'"
  style="cursor: pointer">
    <g [id]="'table-' + desks[7].id" transform="translate(859 59)">
      <rect width="66" height="35" stroke="none" />
      <rect x="2.5" y="2.5" width="61" height="30" fill="none" />
    </g>
    <g [id]="'screen-' + desks[7].id" transform="translate(871 84)">
      <rect id="fill" width="42" height="4" stroke="none" />
      <path
        d="M0,1.5h42M39.5,0v4M42,2.5h-42M2.5,4v-4"
        fill="none"
        clip-path="url(#clip-6)"
      />
    </g>
    <g [id]="'chair-' + desks[7].id" transform="translate(880 30)">
      <ellipse cx="12.5" cy="11" rx="12.5" ry="11" stroke="none" />
      <ellipse cx="12.5" cy="11" rx="10" ry="8.5" fill="none" />
    </g>
  </g>

  <g class="seat" [id]="'seat-' + desks[8].id" 
  [class.selected]="isVisible && isSelected('seat-' + desks[8].id)"
  (click)="select('seat-' + desks[8].id)" 
  [style.fill]="isSelected('seat-' + desks[8].id) ? '#4cdf0c' : (checkDeskAvailability(desks[8].id) ? 'red' : '#0cc')"
  [style.pointer-events]="isVisible ? 'auto' : 'none'"
  style="cursor: pointer">
    <g [id]="'table-' + desks[8].id" transform="translate(797 156) rotate(180)">
      <rect width="66" height="35" stroke="none" />
      <rect x="2.5" y="2.5" width="61" height="30" fill="none" />
    </g>
    <g [id]="'screen-' + desks[8].id" transform="translate(785 131) rotate(180)">
      <rect id="fill" width="42" height="4" stroke="none" />
      <path
        d="M0,1.5h42M39.5,0v4M42,2.5h-42M2.5,4v-4"
        fill="none"
        clip-path="url(#clip-7)"
      />
    </g>
    <g id="'chair-' + desks[8].id" transform="translate(776 185) rotate(180)">
      <ellipse cx="12.5" cy="11" rx="12.5" ry="11" stroke="none" />
      <ellipse cx="12.5" cy="11" rx="10" ry="8.5" fill="none" />
    </g>
  </g>

  <g class="seat" [id]="'seat-' + desks[9].id"
  [class.selected]="isVisible && isSelected('seat-' + desks[9].id)"
  (click)="select('seat-' + desks[9].id)" 
  [style.fill]="isSelected('seat-' + desks[9].id) ? '#4cdf0c' : (checkDeskAvailability(desks[9].id) ? 'red' : '#0cc')"
  [style.pointer-events]="isVisible ? 'auto' : 'none'"
  style="cursor: pointer">
    <g [id]="'table-' + desks[9].id" transform="translate(924 156) rotate(180)">
      <rect width="66" height="35" stroke="none" />
      <rect x="2.5" y="2.5" width="61" height="30" fill="none" />
    </g>
    <g [id]="'screen-' + desks[9].id" transform="translate(912 131) rotate(180)">
      <rect id="fill-8" width="42" height="4" stroke="none" />
      <path
        d="M0,1.5h42M39.5,0v4M42,2.5h-42M2.5,4v-4"
        fill="none"
        clip-path="url(#clip-8)"
      />
    </g>
    <g [id]="'chair-' + desks[9].id" transform="translate(903 185) rotate(180)">
      <ellipse cx="12.5" cy="11" rx="12.5" ry="11" stroke="none" />
      <ellipse cx="12.5" cy="11" rx="10" ry="8.5" fill="none" />
    </g>
  </g>

  <g class="seat" [id]="'seat-' + desks[10].id"
  [class.selected]="isVisible && isSelected('seat-' + desks[10].id)"
  (click)="select('seat-' + desks[10].id)" 
  [style.fill]="isSelected('seat-' + desks[10].id) ? '#4cdf0c' : (checkDeskAvailability(desks[10].id) ? 'red' : '#0cc')"
  [style.pointer-events]="isVisible ? 'auto' : 'none'"
  style="cursor: pointer">
    <g [id]="'table-' + desks[10].id" transform="translate(19 226)">
      <rect width="66" height="35" stroke="none" />
      <rect x="2.5" y="2.5" width="61" height="30" fill="none" />
    </g>

    <g [id]="'screen-' + desks[10].id" transform="translate(31 251)">
      <rect id="fill" width="42" height="4" stroke="none" />
      <path
        d="M0,1.5h42M39.5,0v4M42,2.5h-42M2.5,4v-4"
        fill="none"
        clip-path="url(#clip)"
      />
    </g>
    <g [id]="'chair-' + desks[10].id" transform="translate(40 197)">
      <ellipse cx="12.5" cy="11" rx="12.5" ry="11" stroke="none" />
      <ellipse cx="12.5" cy="11" rx="10" ry="8.5" fill="none" />
    </g>
  </g>

  <g class="seat" [id]="'seat-' + desks[11].id"
  [class.selected]="isVisible && isSelected('seat-' + desks[11].id)"
  (click)="select('seat-' + desks[11].id)" 
  [style.fill]="isSelected('seat-' + desks[11].id) ? '#4cdf0c' : (checkDeskAvailability(desks[11].id) ? 'red' : '#0cc')"
  [style.pointer-events]="isVisible ? 'auto' : 'none'"
  style="cursor: pointer">
    <g [id]="'table-' + desks[11].id" transform="translate(148 226)">
      <rect width="66" height="35" stroke="none" />
      <rect x="2.5" y="2.5" width="61" height="30" fill="none" />
    </g>
    <g [id]="'screen-' + desks[11].id" transform="translate(160 251)">
      <rect id="fill" width="42" height="4" stroke="none" />
      <path
        d="M0,1.5h42M39.5,0v4M42,2.5h-42M2.5,4v-4"
        fill="none"
        clip-path="url(#clip-17)"
      />
    </g>
    <g [id]="'chair-' + desks[11].id" transform="translate(169 197)">
      <ellipse cx="12.5" cy="11" rx="12.5" ry="11" stroke="none" />
      <ellipse cx="12.5" cy="11" rx="10" ry="8.5" fill="none" />
    </g>
</g>

<g class="seat" [id]="'seat-' + desks[12].id"
  [class.selected]="isVisible && isSelected('seat-' + desks[12].id)"
  (click)="select('seat-' + desks[12].id)" 
  [style.fill]="isSelected('seat-' + desks[12].id) ? '#4cdf0c' : (checkDeskAvailability(desks[12].id) ? 'red' : '#0cc')"
  [style.pointer-events]="isVisible ? 'auto' : 'none'"
  style="cursor: pointer">
    <g [id]="'table-' + desks[12].id" transform="translate(85 323) rotate(180)">
      <rect width="66" height="35" stroke="none" />
      <rect x="2.5" y="2.5" width="61" height="30" fill="none" />
    </g>
    <g [id]="'screen-' + desks[12].id" transform="translate(73 298) rotate(180)">
      <rect id="fill" width="42" height="4" stroke="none" />
      <path
        d="M0,1.5h42M39.5,0v4M42,2.5h-42M2.5,4v-4"
        fill="none"
        clip-path="url(#clip-18)"
      />
    </g>
    <g [id]="'chair-' + desks[12].id" transform="translate(64 352) rotate(180)">
      <ellipse cx="12.5" cy="11" rx="12.5" ry="11" stroke="none" />
      <ellipse cx="12.5" cy="11" rx="10" ry="8.5" fill="none" />
    </g>
</g>

<g class="seat" [id]="'seat-' + desks[13].id"
  [class.selected]="isVisible && isSelected('seat-' + desks[13].id)"
  (click)="select('seat-' + desks[13].id)" 
  [style.fill]="isSelected('seat-' + desks[13].id) ? '#4cdf0c' : (checkDeskAvailability(desks[13].id) ? 'red' : '#0cc')"
  [style.pointer-events]="isVisible ? 'auto' : 'none'"
  style="cursor: pointer">
    <g [id]="'table-' + desks[13].id" transform="translate(214 323) rotate(180)">
      <rect width="66" height="35" stroke="none" />
      <rect x="2.5" y="2.5" width="61" height="30" fill="none" />
    </g>
    <g [id]="'screen-' + desks[13].id" transform="translate(202 298) rotate(180)">
      <rect id="fill" width="42" height="4" stroke="none" />
      <path
        d="M0,1.5h42M39.5,0v4M42,2.5h-42M2.5,4v-4"
        fill="none"
        clip-path="url(#clip-19)"
      />
    </g>
    <g [id]="'chair-' + desks[13].id" transform="translate(193 352) rotate(180)">
      <ellipse cx="12.5" cy="11" rx="12.5" ry="11" stroke="none" />
      <ellipse cx="12.5" cy="11" rx="10" ry="8.5" fill="none" />
    </g>
  </g>

  <g class="seat" [id]="'seat-' + desks[14].id"
  [class.selected]="isVisible && isSelected('seat-' + desks[14].id)"
  (click)="select('seat-' + desks[14].id)" 
  [style.fill]="isSelected('seat-' + desks[14].id) ? '#4cdf0c' : (checkDeskAvailability(desks[14].id) ? 'red' : '#0cc')"
  [style.pointer-events]="isVisible ? 'auto' : 'none'"
  style="cursor: pointer">
    <g [id]="'table-' + desks[14].id" transform="translate(19 393)">
      <rect width="66" height="35" stroke="none" />
      <rect x="2.5" y="2.5" width="61" height="30" fill="none" />
    </g>
    <g [id]="'screen-' + desks[14].id" transform="translate(31 418)">
      <rect id="fill" width="42" height="4" stroke="none" />
      <path
        d="M0,1.5h42M39.5,0v4M42,2.5h-42M2.5,4v-4"
        fill="none"
        clip-path="url(#clip-20)"
      />
    </g>
    <g [id]="'chair-' + desks[14].id" transform="translate(40 364)">
      <ellipse cx="12.5" cy="11" rx="12.5" ry="11" stroke="none" />
      <ellipse cx="12.5" cy="11" rx="10" ry="8.5" fill="none" />
    </g>
</g>

<g class="seat" [id]="'seat-' + desks[15].id"
  [class.selected]="isVisible && isSelected('seat-' + desks[15].id)"
  (click)="select('seat-' + desks[15].id)" 
  [style.fill]="isSelected('seat-' + desks[15].id) ? '#4cdf0c' : (checkDeskAvailability(desks[15].id) ? 'red' : '#0cc')"
  [style.pointer-events]="isVisible ? 'auto' : 'none'"
  style="cursor: pointer">
    <g [id]="'table-' + desks[15].id" transform="translate(148 393)">
      <rect width="66" height="35" stroke="none" />
      <rect x="2.5" y="2.5" width="61" height="30" fill="none" />
    </g>
    <g [id]="'screen-' + desks[15].id" transform="translate(160 418)">
      <rect id="fill" width="42" height="4" stroke="none" />
      <path
        d="M0,1.5h42M39.5,0v4M42,2.5h-42M2.5,4v-4"
        fill="none"
        clip-path="url(#clip-15)"
      />
    </g>
    <g [id]="'chair-' + desks[15].id" transform="translate(169 364)">
      <ellipse cx="12.5" cy="11" rx="12.5" ry="11" stroke="none" />
      <ellipse cx="12.5" cy="11" rx="10" ry="8.5" fill="none" />
    </g>
</g>

<g class="seat" [id]="'seat-' + desks[16].id"
  [class.selected]="isVisible && isSelected('seat-' + desks[16].id)"
  (click)="select('seat-' + desks[16].id)" 
  [style.fill]="isSelected('seat-' + desks[16].id) ? '#4cdf0c' : (checkDeskAvailability(desks[16].id) ? 'red' : '#0cc')"
  [style.pointer-events]="isVisible ? 'auto' : 'none'"
  style="cursor: pointer">
    <g [id]="'table-' + desks[16].id" transform="translate(85 491) rotate(180)">
      <rect width="66" height="35" stroke="none" />
      <rect x="2.5" y="2.5" width="61" height="30" fill="none" />
    </g>
    <g [id]="'screen-' + desks[16].id" transform="translate(73 466) rotate(180)">
      <rect id="fill" width="42" height="4" stroke="none" />
      <path
        d="M0,1.5h42M39.5,0v4M42,2.5h-42M2.5,4v-4"
        fill="none"
        clip-path="url(#clip-16)"
      />
    </g>
    <g [id]="'chair-' + desks[16].id" transform="translate(64 520) rotate(180)">
      <ellipse cx="12.5" cy="11" rx="12.5" ry="11" stroke="none" />
      <ellipse cx="12.5" cy="11" rx="10" ry="8.5" fill="none" />
    </g>
</g>

<g class="seat" [id]="'seat-' + desks[17].id"
  [class.selected]="isVisible && isSelected('seat-' + desks[17].id)"
  (click)="select('seat-' + desks[17].id)" 
  [style.fill]="isSelected('seat-' + desks[17].id) ? '#4cdf0c' : (checkDeskAvailability(desks[17].id) ? 'red' : '#0cc')"
  [style.pointer-events]="isVisible ? 'auto' : 'none'"
  style="cursor: pointer">
    <g [id]="'table-' + desks[17].id" transform="translate(214 491) rotate(180)">
      <rect width="66" height="35" stroke="none" />
      <rect x="2.5" y="2.5" width="61" height="30" fill="none" />
    </g>
    <g [id]="'screen-' + desks[17].id" transform="translate(202 466) rotate(180)">
      <rect id="fill" width="42" height="4" stroke="none" />
      <path
        d="M0,1.5h42M39.5,0v4M42,2.5h-42M2.5,4v-4"
        fill="none"
        clip-path="url(#clip-17)"
      />
    </g>
    <g [id]="'chair-' + desks[17].id" transform="translate(193 520) rotate(180)">
      <ellipse cx="12.5" cy="11" rx="12.5" ry="11" stroke="none" />
      <ellipse cx="12.5" cy="11" rx="10" ry="8.5" fill="none" />
    </g>
</g>

<g class="seat" [id]="'seat-' + desks[18].id"
  [class.selected]="isVisible && isSelected('seat-' + desks[18].id)"
  (click)="select('seat-' + desks[18].id)" 
  [style.fill]="isSelected('seat-' + desks[18].id) ? '#4cdf0c' : (checkDeskAvailability(desks[18].id) ? 'red' : '#0cc')"
  [style.pointer-events]="isVisible ? 'auto' : 'none'"
  style="cursor: pointer">
    <g [id]="'table-' + desks[18].id" transform="translate(256 393)">
      <rect width="66" height="35" stroke="none" />
      <rect x="2.5" y="2.5" width="61" height="30" fill="none" />
    </g>
    <g [id]="'screen-' + desks[18].id" transform="translate(268 418)">
      <rect id="fill" width="42" height="4" stroke="none" />
      <path
        d="M0,1.5h42M39.5,0v4M42,2.5h-42M2.5,4v-4"
        fill="none"
        clip-path="url(#clip-18)"
      />
    </g>
    <g [id]="'chair-' + desks[18].id" transform="translate(277 364)">
      <ellipse cx="12.5" cy="11" rx="12.5" ry="11" stroke="none" />
      <ellipse cx="12.5" cy="11" rx="10" ry="8.5" fill="none" />
    </g>
</g>

<g class="seat" [id]="'seat-' + desks[19].id"
  [class.selected]="isVisible && isSelected('seat-' + desks[19].id)"
  (click)="select('seat-' + desks[19].id)" 
  [style.fill]="isSelected('seat-' + desks[19].id) ? '#4cdf0c' : (checkDeskAvailability(desks[19].id) ? 'red' : '#0cc')"
  [style.pointer-events]="isVisible ? 'auto' : 'none'"
  style="cursor: pointer">
    <g [id]="'table-' + desks[19].id" transform="translate(385 393)">
      <rect width="66" height="35" stroke="none" />
      <rect x="2.5" y="2.5" width="61" height="30" fill="none" />
    </g>
    <g [id]="'screen-' + desks[19].id" transform="translate(397 418)">
      <rect id="fill" width="42" height="4" stroke="none" />
      <path
        d="M0,1.5h42M39.5,0v4M42,2.5h-42M2.5,4v-4"
        fill="none"
        clip-path="url(#clip-19)"
      />
    </g>
    <g [id]="'chair-' + desks[19].id" transform="translate(406 364)">
      <ellipse cx="12.5" cy="11" rx="12.5" ry="11" stroke="none" />
      <ellipse cx="12.5" cy="11" rx="10" ry="8.5" fill="none" />
    </g>
</g>

<g class="seat" [id]="'seat-' + desks[20].id"
  [class.selected]="isVisible && isSelected('seat-' + desks[20].id)"
  (click)="select('seat-' + desks[20].id)" 
  [style.fill]="isSelected('seat-' + desks[20].id) ? '#4cdf0c' : (checkDeskAvailability(desks[20].id) ? 'red' : '#0cc')"
  [style.pointer-events]="isVisible ? 'auto' : 'none'"
  style="cursor: pointer">
    <g [id]="'table-' + desks[20].id" transform="translate(322 491) rotate(180)">
      <rect width="66" height="35" stroke="none" />
      <rect x="2.5" y="2.5" width="61" height="30" fill="none" />
    </g>
    <g [id]="'screen-' + desks[20].id" transform="translate(310 466) rotate(180)">
      <rect id="fill" width="42" height="4" stroke="none" />
      <path
        d="M0,1.5h42M39.5,0v4M42,2.5h-42M2.5,4v-4"
        fill="none"
        clip-path="url(#clip-20)"
      />
    </g>
    <g [id]="'chair-' + desks[20].id" transform="translate(301 520) rotate(180)">
      <ellipse cx="12.5" cy="11" rx="12.5" ry="11" stroke="none" />
      <ellipse cx="12.5" cy="11" rx="10" ry="8.5" fill="none" />
    </g>
</g>

<g class="seat" [id]="'seat-' + desks[21].id"
  [class.selected]="isVisible && isSelected('seat-' + desks[21].id)"
  (click)="select('seat-' + desks[21].id)" 
  [style.fill]="isSelected('seat-' + desks[21].id) ? '#4cdf0c' : (checkDeskAvailability(desks[21].id) ? 'red' : '#0cc')"
  [style.pointer-events]="isVisible ? 'auto' : 'none'"
  style="cursor: pointer">
    <g [id]="'table-' + desks[21].id" transform="translate(451 491) rotate(180)">
      <rect width="66" height="35" stroke="none" />
      <rect x="2.5" y="2.5" width="61" height="30" fill="none" />
    </g>
    <g [id]="'screen-' + desks[21].id" transform="translate(439 466) rotate(180)">
      <rect id="fill" width="42" height="4" stroke="none" />
      <path
        d="M0,1.5h42M39.5,0v4M42,2.5h-42M2.5,4v-4"
        fill="none"
        clip-path="url(#clip-21)"
      />
    </g>
    <g [id]="'chair-' + desks[21].id" transform="translate(430 520) rotate(180)">
      <ellipse cx="12.5" cy="11" rx="12.5" ry="11" stroke="none" />
      <ellipse cx="12.5" cy="11" rx="10" ry="8.5" fill="none" />
    </g>
</g>

<g class="seat" [id]="'seat-' + desks[22].id"
  [class.selected]="isVisible && isSelected('seat-' + desks[22].id)"
  (click)="select('seat-' + desks[22].id)" 
  [style.fill]="isSelected('seat-' + desks[22].id) ? '#4cdf0c' : (checkDeskAvailability(desks[22].id) ? 'red' : '#0cc')"
  [style.pointer-events]="isVisible ? 'auto' : 'none'"
  style="cursor: pointer">
    <g [id]="'table-' + desks[22].id" transform="translate(493 393)">
      <rect width="66" height="35" stroke="none" />
      <rect x="2.5" y="2.5" width="61" height="30" fill="none" />
    </g>
    <g [id]="'screen-' + desks[22].id" transform="translate(505 418)">
      <rect id="fill" width="42" height="4" stroke="none" />
      <path
        d="M0,1.5h42M39.5,0v4M42,2.5h-42M2.5,4v-4"
        fill="none"
        clip-path="url(#clip-24)"
      />
    </g>
    <g [id]="'chair-' + desks[22].id" transform="translate(514 364)">
      <ellipse cx="12.5" cy="11" rx="12.5" ry="11" stroke="none" />
      <ellipse cx="12.5" cy="11" rx="10" ry="8.5" fill="none" />
    </g>
</g>

<g class="seat" [id]="'seat-' + desks[23].id"
  [class.selected]="isVisible && isSelected('seat-' + desks[23].id)"
  (click)="select('seat-' + desks[23].id)" 
  [style.fill]="isSelected('seat-' + desks[23].id) ? '#4cdf0c' : (checkDeskAvailability(desks[23].id) ? 'red' : '#0cc')"
  [style.pointer-events]="isVisible ? 'auto' : 'none'"
  style="cursor: pointer">
    <g [id]="'table-' + desks[23].id" transform="translate(622 393)">
      <rect width="66" height="35" stroke="none" />
      <rect x="2.5" y="2.5" width="61" height="30" fill="none" />
    </g>
    <g [id]="'screen-' + desks[23].id" transform="translate(634 418)">
      <rect id="fill" width="42" height="4" stroke="none" />
      <path
        d="M0,1.5h42M39.5,0v4M42,2.5h-42M2.5,4v-4"
        fill="none"
        clip-path="url(#clip-25)"
      />
    </g>
    <g [id]="'chair-' + desks[23].id" transform="translate(643 364)">
      <ellipse cx="12.5" cy="11" rx="12.5" ry="11" stroke="none" />
      <ellipse cx="12.5" cy="11" rx="10" ry="8.5" fill="none" />
    </g>
</g>

<g class="seat" [id]="'seat-' + desks[24].id"
  [class.selected]="isVisible && isSelected('seat-' + desks[24].id)"
  (click)="select('seat-' + desks[24].id)"
  [style.fill]="isSelected('seat-' + desks[24].id) ? '#4cdf0c' : (checkDeskAvailability(desks[24].id) ? 'red' : '#0cc')"
  [style.pointer-events]="isVisible ? 'auto' : 'none'"
  style="cursor: pointer">
    <g [id]="'table-' + desks[24].id" transform="translate(559 491) rotate(180)">
      <rect width="66" height="35" stroke="none" />
      <rect x="2.5" y="2.5" width="61" height="30" fill="none" />
    </g>
    <g [id]="'screen-' + desks[24].id" transform="translate(547 466) rotate(180)">
      <rect id="fill" width="42" height="4" stroke="none" />
      <path
        d="M0,1.5h42M39.5,0v4M42,2.5h-42M2.5,4v-4"
        fill="none"
        clip-path="url(#clip-26)"
      />
    </g>
    <g [id]="'chair-' + desks[24].id" transform="translate(538 520) rotate(180)">
      <ellipse cx="12.5" cy="11" rx="12.5" ry="11" stroke="none" />
      <ellipse cx="12.5" cy="11" rx="10" ry="8.5" fill="none" />
    </g>
</g>

<g class="seat" [id]="'seat-' + desks[25].id"
  [class.selected]="isVisible && isSelected('seat-' + desks[25].id)"
  (click)="select('seat-' + desks[25].id)" 
  [style.fill]="isSelected('seat-' + desks[25].id) ? '#4cdf0c' : (checkDeskAvailability(desks[25].id) ? 'red' : '#0cc')"
  [style.pointer-events]="isVisible ? 'auto' : 'none'"
  style="cursor: pointer">
    <g [id]="'table-' + desks[25].id" transform="translate(688 491) rotate(180)">
      <rect width="66" height="35" stroke="none" />
      <rect x="2.5" y="2.5" width="61" height="30" fill="none" />
    </g>
    <g [id]="'screen-' + desks[25].id" transform="translate(676 466) rotate(180)">
      <rect id="fill" width="42" height="4" stroke="none" />
      <path
        d="M0,1.5h42M39.5,0v4M42,2.5h-42M2.5,4v-4"
        fill="none"
        clip-path="url(#clip-27)"
      />
    </g>
    <g [id]="'chair-' + desks[25].id" transform="translate(667 520) rotate(180)">
      <ellipse cx="12.5" cy="11" rx="12.5" ry="11" stroke="none" />
      <ellipse cx="12.5" cy="11" rx="10" ry="8.5" fill="none" />
    </g>
</g>
</ng-container>

</svg>
