<svg
  id="Komponente_8_1"
  data-name="Komponente 8 – 1"
  xmlns="http://www.w3.org/2000/svg"
  xmlns:xlink="http://www.w3.org/1999/xlink"
  width="945.5"
  height="556"
  viewBox="0 0 945.5 556"
>
  <defs>
    <clipPath id="clip">
      <use xlink:href="#fill" />
    </clipPath>
    <clipPath id="clip-2">
      <use xlink:href="#fill-2" />
    </clipPath>
    <clipPath id="clip-3">
      <use xlink:href="#fill-3" />
    </clipPath>
    <clipPath id="clip-4">
      <use xlink:href="#fill-4" />
    </clipPath>
    <clipPath id="clip-5">
      <use xlink:href="#fill-5" />
    </clipPath>
    <clipPath id="clip-6">
      <use xlink:href="#fill-6" />
    </clipPath>
    <clipPath id="clip-7">
      <use xlink:href="#fill-7" />
    </clipPath>
    <clipPath id="clip-8">
      <use xlink:href="#fill-8" />
    </clipPath>
  </defs>

  <g class="wall" >
    <rect width="945" height="556" stroke="none" />
    <rect x="2.5" y="2.5" width="940" height="551" fill="none" />
  </g>

  <g class="separators">
    <line x2="82" transform="translate(10.5 106.5)" />
    <line x2="82" transform="translate(136.5 106.5)" />
    <line y2="155" transform="translate(92.5 30.5)" />
    <line y2="155" transform="translate(136.5 30)" />

    <line x2="82" transform="translate(10.5 275)" />
    <line x2="82" transform="translate(136.5 275)" />
    <line y2="155" transform="translate(92.5 199.5)" />
    <line y2="155" transform="translate(136.5 199)" />

    <line x2="82" transform="translate(10.5 443.5)" />
    <line x2="82" transform="translate(136.5 443.5)" />
    <line y2="155" transform="translate(92.5 368.5)" />
    <line y2="155" transform="translate(136.5 368)" />


    <line x2="82" transform="translate(249 106.5)" />
    <line x2="82" transform="translate(376 106.5)" />
    <line y2="155" transform="translate(329 30.5)" />
    <line y2="155" transform="translate(376 30)" />

    <line x2="82" transform="translate(249 275)" />
    <line x2="82" transform="translate(376 275)" />
    <line y2="155" transform="translate(329 199.5)" />
    <line y2="155" transform="translate(376 199)" />

    <line x2="82" transform="translate(249 443.5)" />
    <line x2="82" transform="translate(376 443.5)" />
    <line y2="155" transform="translate(329 368.5)" />
    <line y2="155" transform="translate(376 368)" />


    <line x2="82" transform="translate(487.5 106.5)" />
    <line x2="82" transform="translate(614.5 106.5)" />
    <line y2="155" transform="translate(567.5 30.5)" />
    <line y2="155" transform="translate(614.5 30)" />


    <line x2="82" transform="translate(487.5 443.5)" />
    <line x2="82" transform="translate(614.5 443.5)" />
    <line y2="155" transform="translate(567.5 368.5)" />
    <line y2="155" transform="translate(614.5 368)" />



    <line x2="82" transform="translate(726 106.5)" />
    <line x2="82" transform="translate(853 106.5)" />
    <line y2="155" transform="translate(806 30.5)" />
    <line y2="155" transform="translate(853 30)" />


    <line x2="82" transform="translate(726 443.5)" />
    <line x2="82" transform="translate(853 443.5)" />
    <line y2="155" transform="translate(806 368.5)" />
    <line y2="155" transform="translate(853 368)" />
  </g>

  <g class="seat"
  [class.selected]="isSelected('seat-0')"
  (click)="select('seat-0')" >
    <g id="table-0" transform="translate(19 59)">
      <rect width="66" height="35" stroke="none" />
      <rect x="2.5" y="2.5" width="61" height="30" fill="none" />
    </g>

    <g id="screen-0" transform="translate(31 84)">
      <rect id="fill" width="42" height="4" stroke="none" />
      <path
        d="M0,1.5h42M39.5,0v4M42,2.5h-42M2.5,4v-4"
        fill="none"
        clip-path="url(#clip)"
      />
    </g>
    <g id="chair-0" transform="translate(40 30)">
      <ellipse cx="12.5" cy="11" rx="12.5" ry="11" stroke="none" />
      <ellipse cx="12.5" cy="11" rx="10" ry="8.5" fill="none" />
    </g>
  </g>

  <g class="seat" 
  [class.selected]="isSelected('seat-1')"
  (click)="select('seat-1')">
    <g id="table-1" transform="translate(148 59)">
      <rect width="66" height="35" stroke="none" />
      <rect x="2.5" y="2.5" width="61" height="30" fill="none" />
    </g>
    <g id="screen-1" transform="translate(160 84)">
      <rect id="fill-2" width="42" height="4" stroke="none" />
      <path
        d="M0,1.5h42M39.5,0v4M42,2.5h-42M2.5,4v-4"
        fill="none"
        clip-path="url(#clip-2)"
      />
    </g>
    <g id="chair-1" transform="translate(169 30)">
      <ellipse cx="12.5" cy="11" rx="12.5" ry="11" stroke="none" />
      <ellipse cx="12.5" cy="11" rx="10" ry="8.5" fill="none" />
    </g>
  </g>

  <g class="seat" 
  [class.selected]="isSelected('seat-2')"
  (click)="select('seat-2')">
    <g id="table-2" transform="translate(85 156) rotate(180)">
      <rect width="66" height="35" stroke="none" />
      <rect x="2.5" y="2.5" width="61" height="30" fill="none" />
    </g>
    <g id="screen-2" transform="translate(73 131) rotate(180)">
      <rect id="fill-3" width="42" height="4" stroke="none" />
      <path
        d="M0,1.5h42M39.5,0v4M42,2.5h-42M2.5,4v-4"
        fill="none"
        clip-path="url(#clip-3)"
      />
    </g>
    <g id="chair-2" transform="translate(64 185) rotate(180)">
      <ellipse cx="12.5" cy="11" rx="12.5" ry="11" stroke="none" />
      <ellipse cx="12.5" cy="11" rx="10" ry="8.5" fill="none" />
    </g>
  </g>

  <g class="seat" 
  [class.selected]="isSelected('seat-3')"
  (click)="select('seat-3')">
    <g id="table-3" transform="translate(214 156) rotate(180)">
      <rect width="66" height="35" stroke="none" />
      <rect x="2.5" y="2.5" width="61" height="30" fill="none" />
    </g>
    <g id="screen-3" transform="translate(202 131) rotate(180)">
      <rect id="fill-4" width="42" height="4" stroke="none" />
      <path
        d="M0,1.5h42M39.5,0v4M42,2.5h-42M2.5,4v-4"
        fill="none"
        clip-path="url(#clip-4)"
      />
    </g>
    <g id="chair-3" transform="translate(193 185) rotate(180)">
      <ellipse cx="12.5" cy="11" rx="12.5" ry="11" stroke="none" />
      <ellipse cx="12.5" cy="11" rx="10" ry="8.5" fill="none" />
    </g>
  </g>

  <g class="seat" [class.selected]="isSelected('seat-4')" (click)="select('seat-4')">
  <g id="table-4" transform="translate(349 59)">
    <rect width="66" height="35" stroke="none" />
    <rect x="2.5" y="2.5" width="61" height="30" fill="none" />
  </g>
  <g id="screen-4" transform="translate(361 84)">
    <rect id="fill-5" width="42" height="4" stroke="none" />
    <path
      d="M0,1.5h42M39.5,0v4M42,2.5h-42M2.5,4v-4"
      fill="none"
      clip-path="url(#clip-5)"
    />
  </g>
  <g id="chair-4" transform="translate(370 30)">
    <ellipse cx="12.5" cy="11" rx="12.5" ry="11" stroke="none" />
    <ellipse cx="12.5" cy="11" rx="10" ry="8.5" fill="none" />
  </g>
</g>

</svg>
